<?xml version="1.0" standalone="no"?>
<!DOCTYPE svg PUBLIC "-//W3C//DTD SVG 20010904//EN"
 "http://www.w3.org/TR/2001/REC-SVG-20010904/DTD/svg10.dtd">
<svg version="1.0" xmlns="http://www.w3.org/2000/svg"
 width="960.000000pt" height="1280.000000pt" viewBox="0 0 960.000000 1280.000000"
 preserveAspectRatio="xMidYMid meet">

<g transform="translate(0.000000,1280.000000) scale(0.100000,-0.100000)"
fill="#000000" stroke="none">
<path d="M4129 10427 c-103 -25 -186 -50 -198 -60 -12 -10 -13 -9 -7 1 7 11 4
12 -13 3 -11 -7 -21 -17 -21 -23 0 -6 -3 -8 -6 -5 -4 4 -19 -3 -35 -14 -21
-15 -47 -20 -104 -22 -41 -1 -75 -5 -75 -8 0 -10 -133 -49 -143 -42 -6 3 -7 1
-3 -5 5 -8 0 -12 -12 -12 -11 0 -25 -7 -32 -15 -7 -8 -23 -15 -36 -15 -24 0
-35 -20 -11 -20 6 0 3 -7 -8 -16 -11 -8 -19 -19 -18 -24 1 -4 -8 -16 -20 -26
l-22 -19 19 23 c25 28 4 29 -29 0 -14 -12 -35 -23 -46 -25 -19 -3 -20 -1 -8
14 12 16 11 16 -8 0 -12 -11 -26 -16 -31 -13 -5 3 -15 -1 -21 -8 -10 -11 -8
-17 6 -25 17 -9 16 -10 -6 -19 -34 -12 -67 -4 -79 21 -9 18 -11 19 -11 5 -1
-12 -10 -18 -28 -20 -16 0 -32 -2 -38 -3 -5 -2 -14 -4 -20 -5 -5 -1 -19 -1
-30 0 l-20 2 20 -17 c11 -9 14 -13 7 -10 -7 4 -21 0 -30 -8 -9 -7 -26 -17 -37
-20 -15 -5 -12 0 10 19 45 39 -2 12 -66 -38 -31 -23 -54 -49 -52 -55 3 -7 -1
-13 -9 -13 -19 0 -68 -112 -62 -141 5 -20 4 -21 -6 -9 -9 12 -10 11 -6 -6 4
-12 -4 -39 -18 -66 -13 -26 -23 -58 -22 -72 4 -32 -2 -33 -14 -3 -7 16 -9 3
-7 -49 1 -40 5 -70 9 -68 4 2 9 -6 11 -18 3 -17 4 -16 2 4 -1 21 2 25 14 19 9
-6 15 -26 17 -52 2 -44 28 -107 41 -100 3 2 23 -18 42 -45 20 -26 30 -44 22
-39 -11 6 -13 4 -8 -9 4 -10 7 -19 7 -22 0 -2 7 -1 15 2 8 4 15 1 15 -4 0 -11
-29 -9 -53 3 -11 6 -1 -3 63 -55 14 -11 41 -33 60 -49 l34 -28 -29 -1 c-17 0
-39 5 -50 11 -11 6 -24 11 -30 12 -5 0 -27 13 -48 29 -25 19 -36 34 -32 45 3
8 3 12 -1 8 -4 -4 -13 -2 -21 4 -7 6 -13 8 -13 3 0 -4 -14 14 -31 40 -32 51
-54 141 -44 179 5 20 5 21 -6 3 -7 -11 -9 -39 -6 -70 l5 -51 -14 40 c-8 22
-13 54 -10 70 5 25 4 27 -5 12 -6 -11 -9 -30 -6 -43 2 -14 0 -27 -4 -30 -5 -3
-9 -10 -9 -15 0 -6 4 -8 9 -4 6 3 24 -24 41 -61 18 -36 34 -63 37 -61 2 3 -1
16 -8 29 -11 21 -11 22 4 9 10 -7 17 -19 17 -25 1 -20 148 -159 197 -185 14
-7 20 -17 17 -26 -4 -8 -1 -15 6 -15 6 0 8 5 5 10 -3 6 1 10 10 10 30 0 3 -22
-64 -52 -63 -28 -89 -31 -136 -13 -16 5 -17 5 -5 -4 8 -6 15 -15 15 -21 0 -6
5 -14 12 -18 9 -6 7 -11 -7 -20 -12 -7 -21 -8 -25 -2 -4 7 -13 7 -25 0 -15 -8
-20 -6 -25 10 -3 11 -14 20 -24 20 -9 0 -27 9 -39 20 -12 12 -22 17 -22 12 0
-5 18 -22 40 -37 45 -31 50 -44 20 -52 -27 -7 -25 -25 5 -61 34 -41 32 -51
-15 -58 -25 -4 -40 -12 -40 -21 0 -10 6 -12 20 -8 38 12 20 -5 -27 -26 -31
-13 -58 -35 -78 -62 -16 -23 -21 -35 -11 -28 16 13 17 13 14 -5 -3 -16 2 -19
37 -16 29 2 36 0 25 -8 -8 -5 -11 -10 -6 -10 5 0 1 -9 -8 -19 -24 -26 -38 -91
-24 -108 7 -9 7 -13 0 -13 -24 0 -41 43 -38 96 2 30 -1 54 -5 54 -5 0 -9 -9
-9 -20 0 -11 -4 -20 -10 -20 -6 0 -6 -9 0 -25 6 -15 6 -26 0 -30 -6 -4 -10
-12 -10 -18 0 -8 3 -8 9 2 6 9 11 10 15 2 4 -6 4 -15 1 -21 -3 -5 1 -10 9 -10
16 0 52 -58 42 -68 -3 -3 3 -11 14 -19 11 -8 20 -22 20 -31 1 -9 10 -42 21
-72 11 -30 20 -62 20 -70 0 -8 5 -24 9 -35 13 -29 34 -108 31 -119 -1 -4 3
-14 9 -21 6 -8 12 -36 13 -64 1 -28 5 -51 10 -51 4 0 7 -6 7 -14 0 -7 7 -19
15 -26 8 -7 15 -23 15 -36 0 -12 5 -26 10 -29 6 -3 10 -23 10 -44 0 -51 28
-141 43 -138 8 1 11 -14 10 -50 -2 -52 1 -58 35 -54 6 1 12 -3 12 -9 0 -6 4
-9 8 -6 5 3 12 -50 16 -117 10 -194 22 -252 66 -338 25 -49 46 -109 58 -172
22 -104 41 -153 42 -104 0 15 -1 29 -2 30 -5 7 24 37 34 37 6 0 8 -12 4 -27
-4 -16 -11 -77 -16 -137 -7 -91 -6 -114 6 -138 26 -50 164 -97 147 -50 -3 9
-3 14 2 10 4 -4 9 -29 10 -56 4 -71 51 -252 91 -346 43 -101 109 -217 186
-323 l60 -82 5 -214 5 -214 -50 -54 c-82 -89 -201 -249 -287 -386 -35 -55 -33
-54 -270 -182 -99 -54 -229 -127 -290 -163 -130 -78 -195 -109 -290 -138 -84
-26 -310 -130 -380 -175 -49 -32 -160 -92 -260 -142 -27 -14 -60 -34 -71 -45
-12 -10 -59 -30 -105 -42 -96 -27 -216 -76 -262 -108 -18 -12 -57 -44 -88 -72
-31 -28 -80 -69 -108 -91 -116 -89 -143 -113 -160 -138 -9 -14 -35 -39 -58
-56 -23 -16 -50 -49 -62 -75 -12 -24 -44 -81 -70 -125 -55 -90 -190 -422 -262
-643 -108 -332 -204 -807 -264 -1313 -32 -266 -50 -389 -109 -735 -54 -319
-73 -438 -81 -507 l-6 -53 4752 0 4752 0 -6 32 c-3 18 -17 101 -31 184 -14 83
-35 194 -46 248 -25 121 -37 199 -55 346 -30 240 -45 357 -54 415 -5 33 -15
105 -21 160 -19 172 -27 227 -115 810 -84 558 -98 612 -207 830 -170 337 -266
522 -298 573 -19 31 -61 76 -103 110 -40 31 -99 81 -133 112 -34 30 -120 91
-193 135 -72 44 -179 111 -237 148 -139 89 -174 106 -231 113 -27 4 -86 25
-133 47 -193 91 -259 120 -345 154 -49 20 -110 46 -135 58 -25 13 -83 35 -130
49 -47 14 -121 39 -165 55 -44 17 -177 64 -295 106 -118 42 -252 94 -297 115
l-83 39 -39 83 c-21 46 -54 103 -73 128 -18 25 -53 73 -76 107 -75 110 -162
201 -194 203 -5 0 -9 -42 -10 -92 -1 -89 -2 -90 -8 -33 -4 33 -7 48 -8 33 -1
-16 -6 -28 -11 -28 -9 0 -20 -25 -28 -60 -9 -41 -8 -140 2 -144 6 -3 5 -8 -4
-14 -11 -8 -11 -16 -2 -43 8 -25 8 -35 0 -43 -9 -8 -10 -6 -6 7 4 9 2 17 -4
17 -7 0 -9 -10 -5 -25 4 -15 2 -25 -4 -25 -6 0 -8 -5 -5 -10 4 -6 12 -4 21 5
24 24 25 18 3 -32 -20 -46 -16 -62 16 -63 6 0 3 -6 -5 -13 -20 -16 -24 -38 -5
-31 12 5 11 -2 -3 -43 -10 -26 -22 -55 -27 -63 -5 -8 -10 -23 -11 -34 0 -11
-6 -22 -12 -24 -7 -2 -12 -10 -12 -18 0 -18 -38 -56 -49 -50 -4 3 -17 -1 -27
-8 -13 -10 -23 -11 -31 -5 -8 7 -10 5 -6 -10 5 -22 -10 -43 -41 -54 -10 -4
-16 -13 -12 -22 3 -8 1 -17 -4 -20 -6 -4 -10 -1 -10 4 0 17 -20 13 -27 -5 -3
-9 -16 -27 -29 -39 -16 -16 -21 -30 -17 -41 4 -12 3 -15 -6 -10 -9 6 -10 1 -5
-18 6 -26 -10 -38 -19 -13 -3 6 -4 2 -4 -10 1 -13 5 -23 9 -23 4 0 0 -12 -7
-27 -8 -16 -12 -35 -10 -44 4 -10 -8 -30 -30 -52 -20 -20 -37 -35 -38 -34 -6
5 -57 -49 -57 -60 0 -8 -7 -16 -15 -19 -8 -4 -15 -13 -15 -20 0 -8 -7 -17 -16
-21 -9 -3 -36 -26 -60 -51 -36 -38 -44 -43 -50 -29 -9 25 -26 20 -19 -5 5 -18
4 -20 -4 -8 -8 12 -13 12 -23 2 -9 -9 -9 -12 2 -12 13 0 13 -2 0 -10 -19 -12
-33 -13 -26 -1 3 5 -3 11 -14 14 -18 5 -19 4 -5 -16 22 -32 19 -50 -7 -42 -20
5 -21 5 -5 -5 22 -14 12 -34 -11 -21 -12 7 -22 5 -36 -7 -18 -16 -18 -16 -12
6 5 16 3 22 -7 22 -14 0 -66 -35 -79 -55 -5 -6 -8 -5 -8 3 0 9 -5 10 -17 3
-19 -9 -25 -11 -44 -11 -6 0 -9 -9 -6 -20 7 -28 -18 -46 -40 -29 -11 10 -14
10 -9 1 4 -7 2 -12 -6 -12 -10 0 -9 -3 2 -11 12 -8 10 -9 -8 -4 -15 4 -24 1
-28 -9 -3 -9 -10 -13 -15 -10 -5 3 -10 0 -10 -5 -1 -6 -2 -16 -3 -21 0 -6 -6
-14 -12 -18 -15 -10 -25 -42 -14 -42 16 0 12 -46 -5 -60 -8 -7 -14 -20 -14
-29 1 -15 2 -15 6 0 5 20 50 31 50 13 0 -7 -4 -11 -8 -9 -12 8 -20 -28 -9 -39
13 -13 13 -39 0 -31 -6 3 -14 -5 -20 -19 -9 -25 -50 -38 -50 -16 0 6 6 10 14
10 8 0 18 5 22 12 4 6 3 8 -2 5 -18 -10 -103 -17 -109 -8 -3 5 0 11 6 13 6 2
-8 4 -31 5 -49 2 -97 37 -80 58 8 9 6 14 -5 19 -8 3 -15 1 -15 -5 0 -6 -7 -8
-16 -5 -12 4 -15 2 -10 -9 3 -9 0 -15 -9 -15 -8 0 -15 -4 -15 -10 0 -5 -6 -10
-14 -10 -9 0 -12 7 -9 19 6 23 -86 118 -97 100 -5 -7 -9 -6 -13 4 -3 9 1 18
10 21 14 6 13 9 -4 24 -11 9 -22 25 -26 34 -3 10 -13 18 -21 18 -21 0 -27 38
-8 56 14 14 14 18 1 28 -8 6 -20 22 -28 35 -12 22 -11 26 4 37 14 11 15 16 6
27 -6 8 -9 21 -6 29 3 8 -8 27 -27 45 -57 53 -68 74 -68 124 0 26 4 49 10 51
6 2 4 14 -4 30 -8 15 -12 29 -8 32 3 3 0 6 -6 6 -7 0 -12 4 -12 9 0 5 10 7 23
4 l22 -5 -22 20 c-20 17 -21 22 -9 55 9 27 15 34 26 27 9 -5 20 -4 29 3 11 10
13 8 7 -10 -4 -13 -2 -24 6 -29 7 -4 10 -4 6 0 -14 16 15 33 38 22 30 -14 50
-46 29 -46 -26 0 -16 -19 12 -22 14 -2 28 -9 29 -16 1 -7 0 -8 -3 -2 -5 12
-23 4 -23 -11 0 -5 7 -9 15 -9 8 0 26 -5 40 -12 23 -10 25 -16 20 -55 -5 -43
-1 -48 33 -44 17 3 92 -46 92 -59 0 -13 -13 -13 -28 2 -9 9 -10 6 -7 -12 5
-28 16 -39 22 -22 4 10 8 10 19 1 11 -9 14 -8 14 7 0 17 1 17 16 2 12 -12 24
-14 51 -8 19 5 38 12 41 16 4 4 -1 4 -10 1 -12 -4 -18 -1 -18 9 0 8 -4 12 -10
9 -6 -3 -10 -1 -10 6 0 7 -3 10 -6 6 -7 -7 -23 9 -42 42 -12 20 -12 25 0 32
10 6 5 15 -19 38 -33 29 -47 55 -18 31 12 -10 15 -10 15 0 0 7 -8 19 -17 27
-10 8 -12 11 -4 7 8 -4 12 -3 8 3 -13 21 -16 64 -4 60 7 -3 11 -9 10 -15 -2
-6 4 -9 12 -6 11 5 9 11 -11 27 -17 16 -25 34 -27 65 -3 42 -3 43 22 37 24 -6
25 -5 7 8 -18 13 -18 15 12 37 18 13 32 29 32 36 0 13 12 13 76 -5 32 -8 36
-8 22 2 -9 7 -19 29 -23 48 -4 20 -21 51 -38 70 -18 19 -38 47 -44 62 -7 15
-20 27 -28 27 -9 0 -13 5 -10 10 4 6 1 17 -5 25 -9 11 -9 15 -1 15 15 0 14 16
-2 32 -7 7 -14 16 -15 20 -7 25 -15 37 -21 34 -4 -3 -8 4 -8 15 -1 12 2 17 10
12 7 -3 3 3 -7 15 -17 19 -17 22 -3 22 16 0 20 13 20 62 0 14 5 16 23 12 14
-4 24 -2 24 4 0 6 30 13 68 17 37 3 76 10 87 14 11 5 29 5 40 1 11 -4 28 -3
38 2 10 5 17 5 17 -1 0 -11 55 0 88 18 12 7 27 9 33 6 5 -4 16 -1 24 5 8 6 20
8 26 4 7 -4 9 -3 6 3 -4 6 4 13 18 15 13 3 26 1 28 -5 1 -5 16 2 31 16 15 14
44 31 64 37 86 27 122 44 122 56 0 8 5 14 11 14 5 0 7 -4 4 -10 -3 -5 -2 -10
4 -10 5 0 13 5 16 10 3 6 1 10 -4 10 -21 0 -11 20 13 26 14 3 27 13 30 21 4 8
13 13 21 10 9 -4 12 -1 9 7 -3 7 7 18 21 24 23 11 32 31 19 44 -3 3 -17 -5
-32 -19 -15 -14 -41 -31 -57 -39 -17 -7 -39 -22 -50 -34 -11 -12 -33 -29 -50
-38 -28 -14 -29 -14 -16 2 8 9 11 19 7 23 -3 3 -6 1 -6 -5 0 -7 -7 -12 -16
-12 -9 0 -14 -6 -11 -13 4 -10 -5 -13 -34 -13 -22 1 -41 -4 -44 -11 -2 -7 -11
-10 -20 -7 -8 4 -15 1 -15 -6 0 -8 -9 -10 -25 -6 -14 4 -25 2 -25 -3 0 -10
-44 -8 -75 4 -19 7 -19 7 -1 -7 18 -14 18 -15 -2 -13 -12 1 -25 4 -28 8 -4 3
-15 2 -24 -3 -10 -6 -32 -7 -49 -4 -21 4 -31 3 -31 -5 0 -8 -8 -10 -19 -6 -14
4 -23 0 -31 -15 -10 -19 -12 -19 -43 -4 -30 16 -31 16 -18 1 12 -15 11 -17
-10 -17 -43 0 -89 23 -89 45 -1 19 -1 19 -14 2 -12 -16 -17 -16 -35 -5 -12 7
-21 16 -21 20 0 5 -18 24 -39 44 -27 23 -39 42 -37 57 2 24 25 69 26 51 0 -16
28 -26 35 -13 4 5 1 8 -6 7 -22 -5 -22 30 0 37 11 3 22 18 26 33 4 21 12 27
36 29 16 1 37 9 45 18 19 18 26 19 42 3 6 -6 15 -8 19 -4 4 4 1 11 -7 16 -13
8 -12 10 3 10 10 0 25 -7 33 -15 19 -18 38 -20 31 -2 -3 9 6 14 27 15 17 1 39
5 50 8 11 4 16 2 13 -4 -7 -10 69 1 81 13 4 3 -7 4 -23 0 -25 -5 -27 -4 -12 5
20 13 67 6 67 -10 0 -6 21 -10 46 -10 27 0 43 4 39 10 -12 20 14 10 28 -11 13
-18 18 -19 37 -9 13 7 19 17 16 26 -5 12 -1 14 15 9 13 -5 19 -3 15 3 -3 5 2
13 11 16 9 4 20 1 24 -5 4 -6 12 -8 18 -5 14 9 15 43 1 51 -6 4 -5 13 2 25 7
10 16 16 22 13 5 -3 6 -1 2 5 -3 6 2 15 11 21 16 9 16 12 3 21 -8 5 -19 9 -25
9 -5 0 -4 -3 3 -6 16 -6 -3 -33 -24 -33 -14 0 -18 11 -15 42 2 12 -4 15 -19
11 -16 -4 -19 -2 -14 11 3 9 1 16 -5 16 -6 0 -11 -3 -11 -7 0 -5 -39 -7 -88
-6 -147 4 -177 8 -175 20 2 9 -5 9 -26 2 -17 -6 -37 -6 -53 0 -17 6 -46 5 -94
-5 -38 -9 -81 -13 -96 -10 -16 3 -28 0 -31 -8 -8 -19 -47 -28 -47 -10 0 17 -1
17 -34 4 -17 -6 -26 -6 -26 1 0 6 -7 6 -20 -1 -15 -8 -20 -8 -20 1 0 8 -5 8
-16 -2 -9 -7 -18 -9 -22 -3 -4 5 -14 10 -22 12 -21 5 -50 33 -50 48 0 10 -6
11 -26 3 -25 -9 -26 -8 -13 8 7 10 20 24 28 31 9 7 11 12 3 12 -7 0 -12 10
-12 21 0 18 -2 19 -15 9 -13 -11 -15 -8 -15 14 0 27 14 35 24 14 3 -7 3 -2 -1
12 -3 14 -6 32 -7 41 -1 18 44 74 62 75 33 3 34 4 21 21 -13 15 -12 15 10 4
13 -7 21 -8 17 -3 -3 6 -1 14 5 18 6 3 15 0 20 -7 5 -8 9 -9 9 -3 0 7 15 10
37 8 21 -1 43 2 49 7 6 5 51 12 100 15 114 8 114 8 149 0 20 -5 26 -4 16 2
-10 7 -3 11 25 14 22 3 43 1 48 -3 6 -5 -4 -9 -25 -10 -27 0 -30 -2 -14 -8 11
-5 53 -3 95 5 115 20 132 24 177 45 24 10 56 19 73 19 16 0 30 5 30 10 0 6 9
10 19 10 11 0 22 4 25 8 7 12 66 13 66 1 0 -5 5 -9 11 -9 6 0 9 9 6 20 -5 18
-2 20 16 14 12 -4 30 -8 39 -8 12 0 14 -4 7 -12 -6 -8 -3 -13 12 -17 11 -3 18
-10 15 -16 -4 -6 -14 -8 -24 -5 -9 2 -3 -2 13 -10 17 -8 24 -15 16 -16 -11 0
-11 -3 -1 -15 7 -8 16 -15 21 -15 12 0 4 47 -11 65 -20 24 10 49 55 48 19 -1
35 3 35 8 0 5 7 9 15 9 8 0 15 -6 15 -14 0 -8 6 -17 13 -19 8 -4 8 -8 2 -14
-16 -13 -16 -31 -1 -36 15 -6 30 19 21 34 -4 5 0 6 8 3 21 -8 28 8 32 71 2 29
7 60 11 67 8 13 10 18 12 50 1 10 5 17 10 17 19 -3 25 2 12 11 -12 8 -10 10 9
10 17 0 22 4 17 16 -3 9 -6 22 -6 31 0 9 -6 13 -15 9 -12 -4 -14 4 -11 50 2
31 7 58 10 61 3 4 6 11 6 17 0 6 -5 4 -10 -4 -7 -11 -10 -8 -10 16 0 36 -33
84 -58 85 -14 0 -15 1 -2 7 13 6 13 11 -1 39 -9 18 -19 29 -23 26 -4 -4 -4 1
0 12 6 15 4 17 -9 12 -9 -3 -17 -2 -17 3 0 6 -5 10 -12 10 -6 0 -4 -7 5 -18
10 -10 17 -25 17 -33 0 -12 -2 -12 -9 0 -6 8 -19 12 -36 9 -18 -4 -25 -2 -21
7 3 8 -4 10 -22 7 -26 -4 -26 -3 -8 10 22 17 13 43 -11 33 -13 -4 -15 1 -10
34 4 35 3 39 -19 39 -14 0 -27 -4 -30 -9 -3 -5 2 -9 10 -9 9 0 16 -4 16 -8 0
-5 -14 -6 -31 -4 -24 4 -30 9 -26 23 3 11 1 22 -4 25 -5 3 -9 14 -9 26 0 16
-3 18 -14 9 -21 -17 -62 28 -57 62 0 4 -6 7 -14 7 -8 0 -15 5 -15 10 0 6 4 10
9 10 14 0 10 60 -3 61 -6 1 -22 3 -36 5 -14 2 -39 5 -57 6 -28 2 -30 4 -22 21
10 17 9 17 -20 3 -41 -22 -45 -21 -58 14 -12 33 -54 54 -87 44 -34 -10 -115
-76 -152 -123 -32 -42 -45 -91 -24 -91 6 0 10 4 10 10 0 5 7 7 15 4 8 -3 20
-2 27 2 7 5 22 10 33 11 10 2 22 7 25 12 9 15 60 19 60 5 0 -7 12 -22 28 -34
22 -18 24 -21 7 -18 -17 3 -20 -2 -19 -34 1 -21 -3 -38 -7 -38 -5 0 -6 -6 -3
-14 6 -16 -12 -16 -35 -2 -11 7 -13 5 -8 -8 4 -10 7 -20 7 -22 0 -3 5 -2 10 1
14 9 12 -29 -2 -44 -11 -10 -10 -11 2 -7 8 4 28 -5 44 -19 32 -27 30 -27 66
-30 14 -1 33 -6 43 -10 10 -4 17 -3 17 4 0 6 7 11 15 11 8 0 15 -4 15 -10 0
-5 7 -10 15 -10 8 0 15 -5 15 -11 0 -5 -6 -7 -12 -3 -9 5 -9 3 0 -7 11 -12 15
-11 26 4 15 19 36 23 36 5 0 -6 3 -8 7 -5 7 8 33 -11 33 -24 0 -5 -7 -5 -17
-2 -11 4 -14 3 -9 -5 10 -16 33 -15 39 1 3 9 7 9 20 -1 9 -8 21 -11 27 -7 5 3
10 3 10 -2 0 -12 64 -12 71 0 9 14 29 0 39 -29 5 -13 17 -24 27 -24 14 0 15 2
4 9 -9 6 -2 8 20 6 19 -2 35 -5 37 -6 1 -1 6 -2 11 -3 6 0 19 -11 31 -23 24
-27 35 -29 26 -8 -3 9 0 15 9 15 21 0 27 -17 14 -41 -6 -13 -7 -19 -1 -15 6 3
13 2 16 -3 8 -13 -21 -34 -39 -28 -8 4 -17 1 -21 -6 -4 -7 -4 -9 1 -5 4 4 15
3 22 -4 11 -9 16 -9 23 1 12 21 21 -4 11 -31 -4 -12 -7 -36 -5 -51 1 -16 -6
-48 -16 -72 -14 -32 -15 -45 -7 -48 9 -3 8 -8 -2 -20 -7 -9 -18 -14 -24 -10
-6 4 -8 0 -5 -9 5 -13 3 -14 -16 -5 -20 10 -23 18 -22 60 1 43 4 51 25 59 24
9 24 9 4 23 -14 10 -19 22 -15 40 3 20 1 24 -11 19 -9 -3 -31 1 -49 9 -18 8
-60 15 -93 16 -33 0 -94 9 -135 20 -74 20 -85 20 -85 -2 -1 -7 -6 -11 -12 -10
-7 2 -15 -6 -18 -17 -4 -11 -14 -20 -22 -20 -9 0 -13 3 -10 7 4 3 2 12 -4 19
-9 11 -15 10 -35 -5 -14 -11 -33 -17 -49 -14 -29 6 -33 18 -8 27 15 6 15 8 3
16 -23 14 -43 12 -37 -4 3 -8 -1 -17 -9 -20 -23 -9 -24 -8 -17 11 4 11 3 14
-5 9 -6 -4 -25 0 -42 9 -17 9 -35 13 -40 10 -9 -5 -13 5 -12 25 0 3 -45 6
-101 7 -56 1 -109 3 -117 4 -19 3 -44 28 -36 36 8 8 131 7 145 -1 6 -4 11 -2
11 5 0 6 8 9 20 6 11 -3 18 -2 15 3 -6 9 19 20 47 20 10 0 26 7 35 15 11 11
19 13 28 5 6 -5 23 -10 36 -10 13 1 50 -2 82 -5 33 -3 57 -2 57 4 0 5 10 7 22
3 13 -3 19 -1 15 5 -4 6 3 8 18 5 15 -2 25 0 25 7 0 15 -49 34 -68 26 -10 -4
-13 0 -9 15 3 11 1 18 -3 15 -13 -8 -61 6 -55 15 3 4 -2 11 -11 14 -9 3 -12 2
-8 -5 3 -6 -3 -19 -15 -30 -17 -16 -27 -18 -61 -10 -22 5 -40 6 -40 2 0 -9
-174 -6 -190 4 -9 6 -11 4 -5 -5 6 -10 0 -12 -24 -8 -17 2 -31 0 -31 -5 0 -6
-5 -6 -12 1 -7 5 -23 8 -36 6 -14 -3 -21 0 -17 6 6 10 -7 14 -34 10 -10 -1
-12 6 -7 25 5 18 3 25 -4 20 -7 -4 -6 2 2 14 7 12 30 27 50 33 32 9 36 13 27
30 -10 19 -9 19 14 3 22 -14 26 -14 37 0 10 12 9 15 -6 15 -11 0 -15 3 -8 8
15 10 25 52 12 49 -23 -5 -17 23 6 29 22 5 24 8 11 21 -8 8 -19 11 -25 8 -14
-8 -53 33 -69 73 -8 18 -27 45 -42 60 -16 15 -29 32 -29 38 0 6 -6 17 -14 23
-11 9 -11 17 -3 35 7 14 16 22 21 19 5 -4 6 -2 3 3 -8 14 23 74 39 74 8 0 14
6 14 14 0 7 12 22 26 32 14 10 32 25 39 32 8 6 18 12 24 12 7 0 7 8 1 25 -11
28 -11 29 25 15 20 -7 25 -15 21 -27 -6 -15 -4 -14 14 2 11 10 20 13 20 7 0
-7 -4 -12 -10 -12 -15 0 -12 -27 6 -44 14 -15 11 -20 -8 -17 -5 0 -8 -8 -8
-19 0 -25 33 -42 66 -34 23 6 26 4 21 -10 -5 -12 0 -16 19 -16 19 0 25 4 20
15 -3 9 0 15 8 15 8 0 16 -6 19 -12 3 -10 8 -10 21 1 21 18 74 20 88 4 6 -7
22 -13 37 -13 64 0 151 -47 151 -81 0 -9 4 -8 15 1 8 7 13 24 10 43 -3 31 -12
70 -15 75 -2 1 -3 5 -4 10 -1 4 -9 21 -18 38 -21 39 -9 66 19 43 16 -13 58
-37 103 -60 8 -4 28 -10 43 -14 18 -4 25 -10 21 -18 -4 -7 -3 -9 1 -4 5 4 19
0 31 -8 14 -9 25 -11 29 -5 3 6 0 10 -7 10 -10 0 -10 2 1 9 11 7 10 11 -5 19
-18 11 -18 11 1 26 21 16 66 18 76 3 4 -6 13 -6 20 -1 21 13 43 14 50 2 8 -13
29 -2 29 17 0 17 31 28 44 15 7 -7 5 -10 -4 -11 -9 0 -7 -4 5 -8 15 -6 22 -3
27 10 8 21 44 26 51 7 4 -10 6 -10 6 -1 1 6 -9 19 -21 27 -22 16 -22 17 5 20
6 0 12 8 12 16 0 10 16 18 47 25 25 5 50 13 53 17 4 4 18 0 31 -9 14 -9 27
-13 31 -9 3 3 1 6 -5 6 -7 0 -12 5 -12 10 0 7 6 7 20 0 11 -6 20 -9 21 -8 9
36 7 48 -9 49 -13 0 -12 3 6 11 16 8 32 8 61 -2 54 -17 64 -8 56 51 -8 57 7
66 39 22 18 -24 18 -26 2 -20 -11 4 -15 3 -11 -4 17 -26 29 4 32 82 3 46 6 86
8 88 2 2 -1 9 -8 16 -9 9 -14 9 -25 -2 -19 -18 -27 -17 -59 13 l-28 25 38 -3
c20 -2 37 -2 37 0 0 9 -33 34 -62 47 -41 18 -73 43 -66 50 3 3 12 0 19 -7 8
-7 22 -13 31 -13 31 0 16 20 -28 37 -37 13 -44 14 -44 2 0 -8 -5 -14 -11 -14
-6 0 -9 7 -6 15 4 8 2 17 -4 21 -6 3 -8 12 -5 19 2 7 -5 16 -17 19 -20 6 -20
7 -5 16 26 16 5 58 -54 107 -159 132 -377 150 -566 47 -34 -18 -64 -34 -67
-34 -3 0 -10 0 -16 0 -5 0 -7 -4 -4 -10 3 -5 -1 -10 -9 -10 -9 0 -16 5 -16 11
0 5 -4 7 -10 4 -5 -3 -10 -1 -10 4 0 6 -11 11 -25 11 -16 0 -25 6 -25 15 0 19
-10 19 -37 0 -23 -16 -53 -11 -53 9 0 7 -7 13 -14 13 -12 0 -13 -5 -4 -21 10
-19 10 -20 -6 -6 -16 13 -20 12 -33 -5 -14 -20 -14 -20 -32 4 -13 17 -24 22
-39 17 -11 -4 -23 -2 -27 4 -3 5 0 10 7 10 9 0 9 3 -2 10 -8 5 -10 10 -5 10 6
0 11 9 12 20 1 11 -2 18 -7 15 -4 -3 -6 3 -3 14 3 12 -3 24 -18 35 -13 9 -18
16 -11 16 9 0 6 12 -9 40 -12 21 -26 37 -32 33 -6 -3 -6 -8 0 -12 20 -13 22
-51 2 -61 -15 -8 -17 -7 -13 4 4 11 0 13 -14 9 -16 -4 -19 -1 -15 21 4 21 2
26 -16 26 -11 0 -21 5 -21 11 0 5 4 7 10 4 5 -3 7 0 4 9 -3 8 -13 17 -21 20
-12 5 -13 4 -5 -7 9 -11 6 -19 -13 -37 -14 -13 -25 -20 -25 -15 0 4 -9 0 -20
-10 -11 -10 -17 -23 -14 -29 4 -6 -8 4 -25 22 -18 18 -35 30 -39 28 -4 -2 -13
2 -20 10 -10 11 -10 14 0 14 7 1 2 10 -12 21 -24 20 -24 21 -5 35 18 13 18 14
-6 14 -18 0 -21 2 -9 9 8 6 18 7 22 5 4 -3 8 -1 8 4 0 5 -23 12 -50 16 -46 6
-62 26 -22 26 15 1 15 2 -2 15 -11 8 -29 15 -39 15 -16 0 -17 3 -7 15 11 13 8
13 -25 -1 -20 -8 -40 -13 -43 -10 -3 3 0 6 6 6 7 0 12 4 12 10 0 5 -19 3 -41
-5 -58 -21 -72 -17 -24 6 l40 20 -50 -5 c-34 -4 -44 -3 -30 3 11 5 18 10 15
11 -15 4 -98 13 -117 12 -13 0 -23 4 -23 9 0 5 -9 9 -21 9 -22 0 -52 24 -42
34 10 10 -17 7 -39 -5 -18 -10 -19 -8 -13 13 4 12 12 25 17 27 6 2 17 12 26
21 11 14 25 17 54 14 21 -3 44 -1 51 3 7 4 28 8 47 9 19 0 29 -1 23 -3 -19 -7
-16 -20 7 -26 11 -3 20 -1 20 5 0 5 5 6 10 3 6 -3 13 1 16 9 3 9 14 16 24 16
10 0 25 7 34 15 16 17 36 20 36 6 0 -5 9 -7 20 -4 12 3 20 0 20 -6 0 -8 16
-11 45 -10 25 2 45 6 45 11 0 4 9 -1 20 -12 16 -16 24 -18 46 -9 21 7 29 7 36
-3 6 -10 11 -9 19 5 5 9 19 17 29 17 11 0 20 5 20 11 0 6 9 9 20 6 11 -3 23
-1 26 5 3 5 12 1 21 -9 10 -12 16 -14 19 -6 8 19 32 4 27 -16 -3 -12 2 -20 16
-24 12 -3 21 -10 21 -17 0 -6 -5 -8 -12 -4 -7 4 -8 3 -4 -4 7 -11 -26 -35 -38
-27 -3 3 -2 0 4 -7 7 -8 5 -17 -7 -30 -15 -17 -14 -18 13 -18 22 0 25 -3 14
-9 -8 -6 -18 -7 -22 -5 -4 3 -8 0 -8 -6 0 -8 -9 -10 -25 -6 -41 10 -28 -10 15
-23 40 -12 70 -34 70 -52 0 -6 -6 -7 -12 -3 -8 4 -10 3 -5 -2 5 -5 13 -10 18
-10 5 -1 10 -2 12 -4 1 -1 10 -3 20 -5 13 -2 17 1 13 12 -5 13 -4 14 9 3 17
-14 21 -35 5 -25 -5 3 -10 1 -10 -5 0 -6 -6 -8 -12 -4 -7 4 -5 -2 5 -13 9 -11
14 -23 10 -26 -3 -4 -1 -7 6 -7 10 0 11 -10 7 -34 -4 -19 -2 -37 3 -40 5 -4 9
-27 7 -51 -3 -50 0 -56 14 -22 l9 22 0 -23 c1 -13 5 -20 11 -17 6 3 10 -3 10
-14 0 -12 -4 -21 -10 -21 -5 0 -9 -12 -8 -26 3 -26 3 -26 16 -5 15 21 39 31
26 10 -4 -7 -1 -10 7 -7 9 3 13 18 12 43 -1 26 1 34 7 25 8 -12 10 -12 15 2 4
9 13 19 21 22 10 4 13 1 9 -7 -4 -6 2 -2 13 10 11 12 25 23 33 25 7 2 23 14
36 28 12 14 23 20 23 13 0 -16 90 -2 117 19 7 5 14 5 18 -2 3 -5 11 -10 16
-10 6 0 7 5 3 12 -5 7 -3 8 5 4 7 -5 21 0 32 10 10 9 22 14 26 10 4 -4 1 -12
-7 -17 -11 -8 -9 -9 10 -4 57 15 76 17 60 6 -13 -9 -13 -11 0 -11 9 0 22 6 29
13 11 10 13 10 7 0 -9 -16 6 -17 21 -2 5 5 24 12 42 14 17 2 46 11 65 20 19 9
43 15 53 12 12 -3 9 -5 -9 -6 -16 0 -28 -5 -28 -10 0 -5 -25 -17 -55 -26 -59
-19 -74 -31 -25 -22 21 5 28 3 24 -6 -6 -17 -83 -15 -93 2 -6 9 -11 10 -15 2
-4 -6 -2 -11 3 -11 6 0 11 -7 11 -15 0 -8 -6 -15 -12 -15 -9 0 -8 -4 2 -11 12
-8 10 -9 -7 -4 -13 3 -28 3 -35 -2 -7 -4 -29 -9 -48 -10 -19 -1 -40 -9 -46
-18 -7 -9 -16 -16 -21 -15 -4 1 -9 -6 -11 -14 -2 -9 1 -16 6 -16 6 0 18 -3 28
-7 11 -4 15 -3 11 4 -4 6 6 19 21 29 23 15 50 19 172 20 167 2 160 1 140 14
-11 7 -7 10 20 11 19 1 45 3 58 4 12 1 20 0 17 -3 -2 -3 0 -11 6 -19 14 -16 9
-16 -25 -3 -23 8 -26 7 -26 -11 0 -16 4 -19 18 -14 20 8 185 25 191 19 2 -2
-3 -4 -12 -4 -9 0 -17 -4 -17 -9 0 -14 -40 -20 -67 -10 -16 6 -31 6 -41 -1
-14 -7 -11 -9 15 -10 42 0 50 -16 16 -28 -24 -9 -21 -10 20 -6 26 2 57 8 67
14 26 14 61 12 83 -4 16 -12 16 -14 1 -20 -8 -3 -29 -6 -45 -6 -19 0 -28 -4
-24 -11 4 -6 13 -8 21 -5 19 7 30 -14 13 -25 -9 -5 10 -9 51 -9 46 0 61 -3 50
-10 -8 -5 -32 -10 -52 -10 -21 0 -38 -5 -38 -11 0 -5 4 -8 9 -5 5 4 20 2 33
-3 12 -6 17 -10 10 -10 -30 -2 2 -21 34 -21 23 0 34 -5 34 -14 0 -8 5 -16 12
-18 18 -6 -1 -28 -25 -29 -20 -1 -20 -2 3 -8 14 -4 29 -17 35 -29 5 -12 13
-22 17 -22 5 0 8 -22 8 -48 0 -27 3 -52 8 -56 4 -4 8 -17 8 -29 3 -33 12 -68
22 -81 5 -6 12 -24 15 -41 3 -16 15 -73 27 -125 16 -74 20 -124 19 -225 -2
-123 5 -185 20 -185 4 0 7 8 8 18 1 9 3 36 4 59 2 23 7 39 11 37 11 -7 21 21
22 64 1 25 6 38 17 40 28 5 28 -20 -2 -113 -15 -50 -28 -107 -28 -127 -1 -36
1 -38 30 -38 26 0 29 3 24 20 -5 15 0 21 20 26 19 5 24 11 20 24 -4 12 2 24
16 34 14 10 26 32 30 58 6 29 7 14 4 -44 -3 -49 -2 -88 3 -88 15 0 41 67 48
125 4 33 12 76 19 95 15 45 19 212 6 253 -5 18 -11 67 -13 111 -3 69 -2 75 9
50 10 -25 12 -26 13 -7 0 12 -6 28 -13 35 -17 18 -17 114 1 110 9 -2 12 6 8
28 -3 23 1 37 19 54 16 16 20 27 14 39 -7 11 -4 19 8 26 15 8 16 13 6 29 -13
22 -6 60 14 80 7 8 11 18 8 23 -4 5 -2 9 2 9 5 0 9 9 10 20 1 11 -2 18 -7 15
-5 -3 -8 3 -8 12 0 10 -2 30 -5 46 -3 15 -2 25 3 22 13 -8 21 25 10 45 -7 13
-6 20 3 23 6 3 3 6 -7 6 -16 1 -17 4 -7 14 6 6 15 12 19 12 15 1 60 51 66 75
6 19 5 21 -3 10 -9 -12 -11 -11 -11 8 0 12 6 22 14 22 8 0 17 7 20 16 3 9 2
12 -4 9 -6 -4 -13 7 -16 22 -3 16 -15 35 -25 42 -19 11 -19 10 -8 -11 14 -27
3 -16 -34 34 -15 20 -27 40 -27 45 0 4 4 4 8 -2 4 -5 18 -19 31 -30 l24 -20
-12 22 c-6 13 -25 33 -41 44 -34 26 -47 51 -22 43 15 -5 15 -4 -1 9 -18 15
-18 15 0 20 14 4 14 5 -4 6 -15 1 -24 9 -27 24 -22 101 -24 122 -14 128 7 4 4
8 -6 10 -16 4 -15 6 3 26 28 30 26 37 -4 17 -15 -10 -25 -12 -25 -5 0 19 -2
25 -12 45 -9 16 -7 18 8 14 16 -4 19 1 21 31 1 31 6 72 12 91 1 3 6 -2 11 -10
8 -11 9 -7 4 14 -6 26 -5 28 12 23 18 -7 18 -6 2 7 -10 7 -18 20 -18 28 0 43
-65 141 -143 215 -179 172 -257 251 -257 262 0 6 -4 10 -9 9 -4 -2 -35 31 -67
72 -64 83 -104 122 -119 117 -5 -2 -26 5 -45 16 -94 54 -89 49 -47 43 22 -3
35 -1 32 5 -4 5 -21 9 -38 9 -35 0 -62 16 -121 71 -25 24 -36 41 -31 49 5 8 4
11 -2 7 -6 -4 -36 23 -66 61 -30 37 -68 77 -84 90 -33 27 -206 112 -227 112
-19 0 -66 21 -66 30 0 4 -27 15 -60 25 -33 10 -58 21 -55 24 9 8 -242 73 -280
72 -27 0 -58 29 -45 44 7 8 2 10 -19 7 -16 -2 -44 3 -62 11 -19 9 -61 22 -94
31 -33 8 -69 18 -79 22 -14 5 -17 4 -12 -4 8 -13 -4 -15 -29 -6 -13 5 -14 8
-3 15 8 6 -8 9 -42 10 -30 1 -69 2 -86 3 -17 1 -47 -3 -65 -7z m134 -24 c-7
-2 -19 -2 -25 0 -7 3 -2 5 12 5 14 0 19 -2 13 -5z m-69 -11 c4 -7 -4 -9 -58
-15 -14 -1 -22 -7 -19 -14 4 -9 -4 -13 -23 -12 -20 1 -23 3 -10 6 14 4 16 7 6
13 -10 6 -3 11 21 18 43 13 76 14 83 4z m-658 -240 c-18 -16 -18 -16 -6 6 6
13 14 21 18 18 3 -4 -2 -14 -12 -24z m-271 -62 c3 -5 -1 -10 -10 -10 -9 0 -13
5 -10 10 3 6 8 10 10 10 2 0 7 -4 10 -10z m30 -10 c3 -5 1 -10 -4 -10 -6 0
-11 5 -11 10 0 6 2 10 4 10 3 0 8 -4 11 -10z m-209 -89 c-4 -5 -3 -11 1 -14 5
-2 3 -2 -4 -1 -7 2 -15 -1 -18 -6 -4 -6 -2 -10 3 -10 12 0 3 -39 -9 -41 -5 -1
-15 -2 -21 -3 -7 -1 -16 -5 -20 -11 -4 -5 -8 1 -8 15 0 31 7 41 45 62 37 20
38 20 31 9z m-76 -10 c0 -5 -7 -12 -16 -15 -14 -5 -15 -4 -4 9 14 17 20 19 20
6z m-71 -30 c-35 -30 -49 -25 -15 5 15 14 31 23 34 20 2 -3 -6 -14 -19 -25z
m41 -32 c0 -6 -5 -20 -11 -31 -8 -14 -13 -17 -19 -9 -4 8 -13 1 -24 -21 l-17
-33 5 39 c6 41 25 63 38 43 5 -8 8 -6 8 6 0 9 5 17 10 17 6 0 10 -5 10 -11z
m17 -21 c-3 -8 -6 -5 -6 6 -1 11 2 17 5 13 3 -3 4 -12 1 -19z m-104 -38 c-3
-14 -13 -34 -22 -45 -9 -12 -10 -15 -1 -7 23 20 25 15 22 -57 -3 -48 -8 -71
-18 -75 -8 -3 -14 -1 -14 5 0 6 -7 17 -16 26 -8 9 -13 22 -10 30 3 8 6 21 6
29 0 9 4 12 10 9 6 -4 8 12 5 41 -4 37 -2 45 10 41 9 -4 12 -1 8 9 -3 7 -2 22
1 31 11 27 27 -5 19 -37z m127 16 c0 -3 -4 -8 -10 -11 -5 -3 -10 -1 -10 4 0 6
5 11 10 11 6 0 10 -2 10 -4z m222 -78 c-7 -7 -12 -8 -12 -2 0 14 12 26 19 19
2 -3 -1 -11 -7 -17z m-420 -153 c-9 -19 -9 -32 -2 -48 8 -16 5 -15 -13 7 -18
20 -26 24 -30 15 -4 -11 -6 -11 -6 -1 -1 7 6 15 14 18 8 4 15 14 15 23 0 23
11 34 24 21 6 -6 5 -18 -2 -35z m-40 -73 c-7 -2 -12 -8 -12 -13 0 -6 5 -7 10
-4 6 4 10 -6 10 -22 l-1 -28 -14 25 c-20 36 -19 61 2 53 11 -4 12 -8 5 -11z
m78 -52 c6 -11 8 -20 6 -20 -3 0 -10 9 -16 20 -6 11 -8 20 -6 20 3 0 10 -9 16
-20z m33 -130 c-6 -6 -33 30 -33 44 0 6 9 0 20 -14 10 -14 16 -27 13 -30z
m-72 13 c12 -16 12 -17 -2 -6 -9 7 -20 9 -24 5 -5 -4 -5 -1 -1 6 9 16 11 15
27 -5z m199 -265 c0 -15 -16 -8 -50 22 l-35 30 42 -23 c24 -12 43 -25 43 -29z
m-17 -59 c61 -14 71 -23 33 -33 -24 -6 -99 24 -112 45 -4 7 -2 9 7 6 8 -3 40
-11 72 -18z m3297 0 c0 -6 -4 -7 -10 -4 -5 3 -10 11 -10 16 0 6 5 7 10 4 6 -3
10 -11 10 -16z m-3237 4 c-7 -2 -19 -2 -25 0 -7 3 -2 5 12 5 14 0 19 -2 13 -5z
m-289 -272 c3 -5 -1 -11 -9 -14 -9 -4 -12 -1 -8 9 6 16 10 17 17 5z m0 -113
c-16 -19 -16 -20 -1 -9 9 8 21 11 25 7 4 -4 -2 -14 -12 -22 -17 -12 -21 -11
-31 3 -11 14 -13 13 -19 -11 -4 -18 -12 -26 -21 -22 -9 3 -12 0 -9 -8 3 -8 -5
-17 -18 -21 -36 -12 -79 -14 -76 -3 2 5 6 8 9 6 3 -2 14 4 24 12 17 14 18 13
12 -2 -4 -12 -2 -15 9 -11 10 3 12 12 8 27 -4 11 -3 18 2 13 4 -4 17 1 28 11
54 47 103 68 70 30z m56 18 c0 -3 -4 -8 -10 -11 -5 -3 -10 -1 -10 4 0 6 5 11
10 11 6 0 10 -2 10 -4z m2394 -55 c6 -5 26 -12 45 -16 22 -5 29 -10 21 -15 -7
-4 -26 -4 -41 0 -17 5 -29 5 -29 -1 0 -9 34 -14 75 -11 18 2 17 0 -5 -18 -14
-11 -22 -20 -17 -21 4 -1 11 -2 16 -3 5 0 13 -4 17 -8 10 -11 -10 -10 -41 2
-22 8 -26 7 -24 -8 3 -31 -1 -35 -18 -21 -15 12 -16 12 -10 -3 6 -17 2 -17
-40 -1 -35 12 -41 11 -35 -10 3 -13 1 -18 -6 -13 -6 3 -13 2 -17 -3 -3 -6 -12
-8 -20 -4 -8 3 -15 1 -15 -5 0 -14 -33 -8 -38 6 -2 7 2 12 10 13 7 0 2 5 -11
10 -19 7 -22 12 -13 21 17 17 15 33 -3 18 -12 -10 -16 -9 -21 4 -3 9 -11 16
-17 16 -5 0 -3 -8 5 -17 20 -24 40 -83 27 -83 -5 0 -9 5 -9 11 0 6 -7 9 -15 5
-13 -5 -14 -2 -4 17 11 21 11 21 -7 6 -38 -32 -47 -34 -34 -8 10 20 10 22 -1
12 -7 -7 -24 -13 -37 -13 -13 0 -21 -4 -17 -9 3 -5 1 -12 -4 -15 -5 -4 -11 2
-14 11 -3 15 -6 13 -17 -9 -13 -28 -30 -37 -30 -17 0 8 -4 8 -14 0 -10 -8 -16
-9 -21 -1 -4 6 -12 7 -23 1 -18 -9 -92 16 -92 31 0 13 17 9 30 -7 14 -16 40
-20 40 -6 0 5 9 11 20 14 11 3 20 9 19 14 -4 20 2 32 14 28 32 -11 88 -14 82
-5 -3 5 -15 10 -26 10 -11 0 -19 7 -19 16 0 10 6 14 14 11 10 -4 13 3 11 24
-1 16 3 33 10 39 16 13 75 20 76 9 1 -5 2 -13 3 -19 1 -10 4 -11 29 -9 10 0
10 2 0 6 -25 9 -13 23 15 17 24 -6 25 -5 14 8 -18 22 0 27 71 22 36 -3 57 -1
57 6 0 10 62 -11 84 -29z m-2539 19 c-3 -5 -13 -10 -21 -10 -8 0 -14 -4 -14
-8 0 -4 -16 -15 -36 -24 -21 -10 -34 -12 -31 -5 2 6 14 14 28 18 13 4 20 8 14
8 -13 2 36 30 53 31 7 0 10 -4 7 -10z m1260 -120 c-3 -5 -12 -10 -18 -10 -7 0
-6 4 3 10 19 12 23 12 15 0z m525 0 c0 -5 -5 -10 -11 -10 -5 0 -7 5 -4 10 3 6
8 10 11 10 2 0 4 -4 4 -10z m201 -13 c-1 -12 -15 -9 -19 4 -3 6 1 10 8 8 6 -3
11 -8 11 -12z m43 -76 c3 -5 -1 -12 -10 -15 -8 -3 -12 -2 -9 3 3 5 -3 12 -12
14 -14 4 -13 5 4 6 12 0 24 -3 27 -8z m1756 -121 c9 -16 8 -18 -5 -14 -8 4
-15 12 -15 20 0 20 7 17 20 -6z m-3785 -59 c-12 -11 -24 16 -18 39 l7 25 7
-30 c5 -16 6 -31 4 -34z m2013 13 c-4 -3 -12 5 -18 18 -12 22 -12 22 6 6 10
-10 15 -20 12 -24z m1712 -6 c0 7 5 10 11 6 8 -4 7 -9 -2 -15 -15 -9 -29 -3
-29 14 0 7 4 6 10 -3 7 -11 10 -11 10 -2z m-740 -35 c0 -5 -14 -8 -31 -9 -20
-1 -26 2 -17 7 16 11 48 12 48 2z m775 -23 c3 -5 -1 -10 -9 -10 -9 0 -16 5
-16 10 0 6 4 10 9 10 6 0 13 -4 16 -10z m-730 -9 c10 -17 -11 -21 -31 -6 -18
14 -18 14 3 15 12 0 24 -4 28 -9z m-295 -5 c0 -2 -7 -7 -16 -10 -8 -3 -12 -2
-9 4 6 10 25 14 25 6z m980 -16 c0 -5 -4 -10 -10 -10 -5 0 -10 5 -10 10 0 6 5
10 10 10 6 0 10 -4 10 -10z m-867 -47 c-7 -2 -21 -2 -30 0 -10 3 -4 5 12 5 17
0 24 -2 18 -5z m-740 -18 c-3 -9 -8 -14 -10 -11 -3 3 -2 9 2 15 9 16 15 13 8
-4z m657 11 c0 -3 -4 -8 -10 -11 -5 -3 -10 -1 -10 4 0 6 5 11 10 11 6 0 10 -2
10 -4z m129 -32 c14 -12 -39 -1 -55 11 -17 13 -16 14 16 3 19 -6 37 -13 39
-14z m116 6 c3 -6 -1 -7 -9 -4 -18 7 -21 14 -7 14 6 0 13 -4 16 -10z m35 -15
c-7 -8 -17 -15 -22 -15 -6 0 -5 7 2 15 7 8 17 15 22 15 6 0 5 -7 -2 -15z
m-1200 -15 c0 -5 -5 -10 -11 -10 -5 0 -7 5 -4 10 3 6 8 10 11 10 2 0 4 -4 4
-10z m1354 -79 c3 -4 -6 -6 -19 -3 -14 2 -25 6 -25 8 0 8 39 4 44 -5z m-1914
-45 c8 -7 25 -11 38 -10 12 1 25 -3 28 -7 6 -11 3 -11 -116 -9 -107 1 -213
-22 -293 -64 -26 -14 -47 -22 -47 -19 0 4 -13 -6 -30 -22 -16 -16 -32 -26 -36
-23 -8 8 28 48 43 48 7 0 17 9 23 20 6 11 17 20 25 20 7 0 26 11 42 24 16 13
55 31 87 39 32 9 60 18 63 21 10 10 157 -5 173 -18z m1670 -46 c0 -5 -2 -10
-4 -10 -3 0 -8 5 -11 10 -3 6 -1 10 4 10 6 0 11 -4 11 -10z m40 -35 c13 -14
21 -25 18 -25 -2 0 -15 11 -28 25 -13 14 -21 25 -18 25 2 0 15 -11 28 -25z
m-12 -86 c-3 -8 -7 -3 -11 10 -4 17 -3 21 5 13 5 -5 8 -16 6 -23z m57 21 c3
-5 1 -10 -4 -10 -6 0 -11 5 -11 10 0 6 2 10 4 10 3 0 8 -4 11 -10z m-519 -84
l15 -38 -28 6 c-44 10 -83 28 -83 36 0 5 17 22 38 40 32 26 37 28 40 13 2 -10
10 -35 18 -57z m336 37 c9 -8 21 -12 26 -9 6 3 12 -1 16 -9 7 -19 -30 -44 -81
-56 -33 -7 -41 -5 -62 16 l-25 24 29 -2 c24 -2 29 3 37 30 9 34 25 36 60 6z
m173 -3 l20 -25 -22 19 c-13 11 -23 24 -23 29 0 6 1 8 3 6 1 -2 11 -15 22 -29z
m-405 -15 c-7 -8 -16 -12 -21 -9 -13 8 -1 24 18 24 13 0 13 -3 3 -15z m101 -6
c-11 -12 -27 -19 -38 -16 -15 4 -14 5 5 6 12 1 22 7 22 16 0 8 7 15 15 15 13
0 12 -4 -4 -21z m-1336 -7 c18 -13 11 -55 -10 -63 -32 -12 -33 -11 -22 31 11
41 15 45 32 32z m-335 -74 c0 -5 -9 -8 -20 -8 -14 0 -20 7 -20 23 0 34 12 41
27 15 7 -13 12 -26 13 -30z m135 31 c-4 -5 -13 -9 -22 -9 -13 0 -13 3 -3 15
13 15 35 11 25 -6z m1605 -112 c0 -16 -18 3 -23 25 -6 22 -5 22 8 4 8 -11 15
-24 15 -29z m110 34 c0 -6 -5 -13 -12 -17 -7 -5 -4 -10 11 -16 15 -5 30 -3 46
8 26 17 50 10 41 -12 -3 -8 0 -14 8 -14 7 0 13 -7 13 -15 0 -8 -6 -15 -12 -15
-7 0 -12 -13 -13 -30 -1 -31 7 -37 24 -20 12 12 58 -8 61 -28 2 -8 -10 -10
-42 -7 -25 3 -66 7 -92 9 l-48 5 55 -19 c30 -11 56 -20 58 -20 2 0 0 -5 -4
-12 -5 -8 -2 -9 10 -5 18 7 91 -21 81 -31 -2 -3 1 -12 8 -20 11 -13 9 -14 -13
-2 -14 7 -34 15 -45 16 -11 2 -53 12 -93 24 -88 26 -111 24 -87 -5 9 -11 14
-14 10 -7 -4 8 1 12 15 12 20 0 20 -1 5 -16 -9 -9 -25 -14 -35 -11 -11 3 -20
2 -20 -2 0 -4 -35 -8 -77 -8 -43 -1 -85 -4 -94 -8 -10 -3 -20 -2 -24 4 -3 6
-12 11 -18 11 -7 0 -6 -4 3 -10 12 -7 10 -9 -8 -7 -14 1 -21 6 -18 14 3 8 -10
16 -35 23 -35 10 -38 13 -29 31 6 11 15 17 20 14 4 -3 6 4 3 15 -3 13 0 20 8
20 11 0 11 2 1 8 -7 5 -15 24 -18 43 l-6 34 59 3 c32 2 62 7 68 13 5 6 3 9 -6
9 -8 0 -24 7 -35 15 -18 13 -15 14 29 13 47 -1 58 -13 35 -36 -9 -9 -8 -12 5
-12 11 0 17 8 17 24 0 13 8 27 17 30 18 7 33 -9 33 -37 0 -14 5 -17 23 -12 36
12 42 11 39 -5 -2 -13 0 -12 10 1 7 9 19 14 26 12 17 -6 15 26 -3 33 -8 4 -12
10 -9 15 7 12 54 12 54 0z m-1786 -116 c-6 -15 11 -20 45 -15 10 1 12 -6 7
-25 -7 -26 -30 -58 -37 -51 -5 5 -109 18 -132 18 -9 -1 -15 3 -12 9 4 5 -2 9
-12 10 -10 1 -27 2 -38 3 -27 2 -34 46 -8 46 11 0 24 -5 31 -12 9 -9 12 -9 12
0 0 7 13 12 30 12 20 0 30 -5 30 -15 0 -21 16 -19 33 6 11 15 16 17 20 7 4 -9
6 -7 6 5 1 9 8 17 16 17 9 0 12 -6 9 -15z m36 11 c0 -3 -4 -8 -10 -11 -5 -3
-10 -1 -10 4 0 6 5 11 10 11 6 0 10 -2 10 -4z m60 -52 c0 -12 -2 -12 -14 -2
-8 7 -12 16 -9 21 7 11 23 -2 23 -19z m-270 -84 c-18 -12 -30 -13 -30 -2 0 4
10 9 22 9 18 2 20 0 8 -7z m1600 0 c0 -5 -2 -10 -4 -10 -3 0 -8 5 -11 10 -3 6
-1 10 4 10 6 0 11 -4 11 -10z m1015 -118 c5 -45 4 -67 -4 -70 -6 -2 -11 -10
-11 -18 0 -33 -38 -3 -62 48 -11 24 -14 39 -7 44 6 3 8 12 5 20 -3 8 -2 14 3
14 4 0 6 11 3 25 -3 20 -1 24 11 19 8 -3 18 0 23 7 13 22 31 -18 39 -89z
m-1625 -22 c0 -5 -7 -7 -15 -4 -8 4 -12 10 -9 15 6 11 24 2 24 -11z m-1373
-167 c0 -27 3 -64 6 -83 18 -109 27 -302 18 -370 -5 -31 -9 8 -14 125 -4 94
-13 206 -21 249 -9 51 -11 88 -5 103 12 33 15 29 16 -24z m1613 37 c0 -5 -2
-10 -4 -10 -3 0 -8 5 -11 10 -3 6 -1 10 4 10 6 0 11 -4 11 -10z m-778 -72 c-1
-23 -7 -45 -13 -49 -6 -3 -10 -9 -10 -13 4 -29 -1 -46 -11 -40 -7 5 -9 2 -5
-9 4 -10 -4 -25 -23 -40 -16 -14 -26 -27 -23 -30 3 -3 -5 -16 -17 -29 -30 -32
-44 -69 -29 -79 8 -5 5 -10 -9 -18 -12 -6 -25 -11 -29 -10 -24 4 -35 -4 -44
-31 -6 -16 -15 -30 -20 -30 -14 0 -11 27 4 34 9 5 9 7 -2 12 -9 4 4 24 45 65
32 33 53 59 47 59 -6 0 -13 -4 -15 -9 -1 -5 -19 -18 -38 -29 -19 -11 -34 -25
-32 -32 1 -6 -2 -9 -7 -6 -5 4 -14 -1 -19 -10 -5 -9 -13 -15 -18 -15 -30 3
-63 -33 -56 -61 1 -3 -11 -20 -26 -36 -15 -17 -28 -36 -30 -44 -2 -7 -12 -20
-22 -30 -17 -14 -18 -21 -10 -44 8 -20 8 -29 -1 -34 -7 -5 -7 -10 -1 -13 5 -4
8 -30 5 -59 -2 -38 0 -49 7 -38 8 12 10 11 10 -8 0 -13 4 -20 10 -17 6 3 10
-4 10 -17 0 -18 -2 -20 -10 -8 -5 8 -10 11 -10 6 0 -14 41 -76 50 -76 5 0 8
-8 8 -17 -1 -36 37 -163 49 -163 7 0 10 -6 7 -14 -3 -8 4 -21 16 -29 12 -8 18
-20 15 -30 -4 -9 2 -21 15 -30 12 -8 22 -21 24 -28 1 -8 5 -20 10 -28 5 -8 9
-27 8 -43 -1 -23 3 -28 15 -24 13 5 14 4 4 -8 -8 -10 -9 -21 -3 -32 8 -15 10
-15 24 4 21 30 42 14 28 -22 -8 -22 -7 -31 6 -44 15 -15 16 -14 10 6 -9 27 5
29 22 2 7 -11 8 -20 3 -20 -14 0 -5 -38 13 -55 10 -10 17 -12 21 -4 5 6 12 4
20 -8 7 -10 11 -21 9 -25 -3 -5 -1 -8 4 -8 15 0 7 -48 -12 -68 -17 -19 -17
-20 1 -25 10 -3 4 -5 -14 -6 -18 0 -33 -6 -33 -13 0 -9 -3 -9 -12 0 -17 17
-26 15 -33 -9 -7 -20 -8 -19 -21 7 -8 15 -12 34 -10 41 3 7 1 13 -4 13 -6 0
-10 -6 -11 -12 0 -7 -4 -4 -9 7 -12 28 -12 35 1 35 5 0 7 -4 4 -10 -3 -5 -2
-10 3 -10 5 0 12 9 15 20 3 12 1 20 -6 19 -7 -2 -24 4 -39 11 -25 12 -33 28
-29 54 1 4 -10 19 -24 32 -14 12 -25 27 -25 32 0 4 -11 23 -25 42 -14 19 -25
30 -25 25 0 -4 -13 11 -30 33 -16 23 -30 47 -30 54 0 6 -10 22 -22 35 -14 15
-22 36 -22 58 0 27 -4 35 -18 35 -11 0 -23 11 -28 28 -6 15 -14 36 -19 47 -13
28 -33 120 -30 136 3 20 -11 106 -26 160 -7 25 -12 70 -11 99 1 41 -3 55 -17
65 -11 7 -16 18 -13 23 3 6 -2 13 -12 16 -12 4 -19 16 -20 34 -2 66 -20 143
-36 154 -8 6 -8 8 1 8 11 0 40 96 34 115 -1 6 0 7 4 3 4 -4 14 -1 21 7 18 18
18 29 -1 21 -8 -3 -15 -1 -15 4 0 6 10 10 23 10 17 0 19 2 7 10 -18 11 -10 21
19 23 11 1 21 5 21 10 0 5 -7 7 -14 4 -10 -4 -13 -1 -10 8 8 19 45 15 39 -5
-6 -19 10 -46 19 -32 4 6 13 9 21 5 8 -3 15 0 15 6 0 6 -4 11 -10 11 -5 0 -10
4 -10 8 0 4 9 8 20 8 11 0 20 -4 20 -8 0 -18 21 -6 30 17 10 27 30 34 30 11 0
-8 7 -16 15 -20 15 -6 17 14 1 25 -4 4 4 7 18 7 16 0 23 -5 20 -12 -3 -6 2 -2
10 8 9 11 16 15 16 9 0 -16 48 -22 54 -7 3 8 1 14 -5 14 -6 0 -7 5 -3 11 5 8
9 8 14 -1 4 -7 12 -10 17 -7 5 3 44 9 85 12 42 3 89 10 104 14 38 11 48 0 46
-51z m-657 -88 c3 -6 -1 -7 -9 -4 -18 7 -21 14 -7 14 6 0 13 -4 16 -10z m15
-57 c0 -7 -7 -13 -16 -13 -13 0 -14 -3 -5 -14 9 -11 9 -16 -1 -22 -7 -4 -10
-4 -6 1 4 4 4 13 -1 19 -18 23 -19 55 -2 58 17 4 31 -9 31 -29z m380 -198 c0
-16 -41 -58 -49 -50 -2 3 5 12 17 21 12 8 22 22 22 30 0 8 2 14 5 14 3 0 5 -7
5 -15z m1073 -75 c3 -11 1 -18 -4 -14 -5 3 -9 12 -9 20 0 20 7 17 13 -6z
m-1106 -22 c-3 -8 -6 -5 -6 6 -1 11 2 17 5 13 3 -3 4 -12 1 -19z m1206 -5 c3
-5 -6 -9 -20 -10 -19 -1 -22 1 -12 8 17 11 26 11 32 2z m-1243 -27 c0 -11 -19
-15 -25 -6 -3 5 1 10 9 10 9 0 16 -2 16 -4z m-467 -49 c3 -8 2 -19 -3 -26 -5
-10 -9 -8 -14 4 -3 9 -6 21 -6 26 0 14 17 11 23 -4z m562 -82 c-2 -14 0 -25 4
-25 5 0 8 -13 7 -29 -1 -16 -4 -27 -8 -25 -4 3 -11 -4 -17 -13 -10 -17 -10
-17 -11 0 0 19 -2 20 -24 11 -18 -7 -22 -34 -5 -34 8 0 7 -5 -1 -15 -7 -9 -16
-13 -19 -9 -9 9 -9 74 1 74 12 0 10 34 -4 48 -9 9 -7 12 11 12 13 0 20 4 15
11 -5 8 -1 8 14 0 16 -8 21 -7 26 4 8 23 14 18 11 -10z m1655 11 c0 -11 -19
-15 -25 -6 -3 5 1 10 9 10 9 0 16 -2 16 -4z m-1790 -14 c0 -5 -7 -17 -15 -28
-14 -18 -14 -17 -4 9 12 27 19 34 19 19z m784 -20 c3 -5 -8 -9 -24 -9 -16 0
-27 4 -24 9 3 4 14 8 24 8 10 0 21 -4 24 -8z m-207 -154 c18 -18 33 -41 34
-52 0 -13 7 -3 18 24 15 41 20 45 47 42 17 -2 38 -14 51 -30 20 -24 28 -24 24
1 -1 6 176 2 207 -5 4 -1 36 1 72 5 173 17 248 17 264 1 9 -9 16 -11 16 -4 0
7 17 10 47 8 36 -2 49 -7 51 -20 4 -20 -55 -61 -75 -53 -7 2 -17 -4 -23 -15
-15 -28 -84 -47 -106 -29 -14 11 -18 10 -32 -9 -19 -25 -99 -52 -154 -52 -34
0 -38 3 -47 33 l-9 32 -1 -31 -1 -31 -86 -7 c-47 -3 -90 -3 -95 0 -6 3 -15 18
-21 32 -11 26 -12 26 -15 5 -5 -26 -5 -27 -73 -12 -41 9 -53 16 -61 37 -7 19
-12 23 -18 13 -12 -18 -60 13 -66 43 -22 112 -8 132 52 74z m-87 -27 c19 -46
8 -57 -25 -28 -25 21 -28 27 -16 41 19 23 27 20 41 -13z m-685 -51 c3 -5 1
-10 -4 -10 -6 0 -11 5 -11 10 0 6 2 10 4 10 3 0 8 -4 11 -10z m35 -116 c0 -8
5 -14 10 -14 12 0 13 -70 1 -89 -7 -11 -13 -3 -22 30 -7 24 -17 47 -22 50 -6
4 -7 16 -4 28 3 12 1 21 -4 21 -4 0 -6 7 -2 17 6 14 9 13 25 -7 10 -12 18 -28
18 -36z m1774 -26 c-3 -5 -12 -2 -20 6 -20 21 -17 28 5 14 11 -7 17 -16 15
-20z m-529 -118 c3 -5 1 -10 -4 -10 -6 0 -11 5 -11 10 0 6 2 10 4 10 3 0 8 -4
11 -10z m1112 -832 c-2 -13 -4 -3 -4 22 0 25 2 35 4 23 2 -13 2 -33 0 -45z
m10 -60 c-3 -8 -6 -5 -6 6 -1 11 2 17 5 13 3 -3 4 -12 1 -19z m10 -70 c-3 -8
-6 -5 -6 6 -1 11 2 17 5 13 3 -3 4 -12 1 -19z m-67 -118 c0 -5 -4 -10 -10 -10
-5 0 -10 5 -10 10 0 6 5 10 10 10 6 0 10 -4 10 -10z m-1610 -550 c0 -5 -2 -10
-4 -10 -3 0 -8 5 -11 10 -3 6 -1 10 4 10 6 0 11 -4 11 -10z m-816 -919 c-9 -9
-22 20 -17 39 3 9 0 33 -5 53 -6 20 -7 39 -4 42 4 4 13 -24 19 -61 7 -37 10
-70 7 -73z m-37 77 c-3 -7 -5 -2 -5 12 0 14 2 19 5 13 2 -7 2 -19 0 -25z
m2743 -239 c0 -5 -4 -9 -10 -9 -5 0 -10 7 -10 16 0 8 5 12 10 9 6 -3 10 -10
10 -16z m-20 -30 c0 -6 -4 -7 -10 -4 -5 3 -10 11 -10 16 0 6 5 7 10 4 6 -3 10
-11 10 -16z m-2550 -4 c-7 -9 -15 -13 -19 -10 -3 3 1 10 9 15 21 14 24 12 10
-5z m30 -15 c0 -5 -7 -10 -16 -10 -8 0 -12 5 -9 10 3 6 10 10 16 10 5 0 9 -4
9 -10z m10 -30 c-9 -16 -8 -20 5 -20 9 0 13 -4 10 -10 -3 -5 -10 -10 -15 -10
-14 0 -21 32 -9 46 17 20 21 17 9 -6z m938 -498 c60 -41 71 -66 47 -111 -20
-40 -52 -53 -97 -41 -85 24 -127 123 -76 177 28 30 53 25 126 -25z m419 -2142
c89 -54 35 -240 -69 -240 -100 0 -130 149 -48 232 34 33 71 36 117 8z"/>
<path d="M3032 9953 c-6 -2 -10 -9 -6 -14 8 -14 21 -11 28 6 6 15 1 17 -22 8z"/>
<path d="M5050 8642 c0 -7 -7 -12 -15 -12 -8 0 -15 -8 -15 -17 0 -15 3 -14 22
5 12 12 19 25 15 28 -4 4 -7 2 -7 -4z"/>
<path d="M5108 8643 c7 -3 16 -2 19 1 4 3 -2 6 -13 5 -11 0 -14 -3 -6 -6z"/>
<path d="M5238 8603 c7 -3 16 -2 19 1 4 3 -2 6 -13 5 -11 0 -14 -3 -6 -6z"/>
<path d="M4816 8530 c-13 -4 -16 -9 -8 -14 7 -4 19 -3 28 2 21 12 5 22 -20 12z"/>
<path d="M4010 6915 c-11 -13 -10 -14 4 -9 9 3 16 10 16 15 0 13 -6 11 -20 -6z"/>
<path d="M3912 6761 c4 -13 18 -16 19 -4 0 4 -5 9 -11 12 -7 2 -11 -2 -8 -8z"/>
<path d="M3703 6733 c-20 -7 -15 -23 7 -23 11 0 20 4 20 9 0 13 -12 19 -27 14z"/>
<path d="M3905 5730 c-3 -5 -1 -10 4 -10 6 0 11 5 11 10 0 6 -2 10 -4 10 -3 0
-8 -4 -11 -10z"/>
<path d="M4000 5549 c0 -5 5 -7 10 -4 6 3 10 8 10 11 0 2 -4 4 -10 4 -5 0 -10
-5 -10 -11z"/>
<path d="M3792 6410 c0 -14 2 -19 5 -12 2 6 2 18 0 25 -3 6 -5 1 -5 -13z"/>
<path d="M4672 6180 c0 -14 2 -19 5 -12 2 6 2 18 0 25 -3 6 -5 1 -5 -13z"/>
<path d="M4460 2612 c-10 -12 -10 -20 4 -48 l16 -35 27 18 c16 9 29 17 30 18
1 0 -5 15 -14 32 -16 33 -40 39 -63 15z"/>
<path d="M4885 420 c-3 -5 -2 -17 3 -26 5 -9 7 -25 5 -35 -4 -15 0 -19 20 -19
33 0 46 18 40 58 -5 27 -9 32 -34 32 -15 0 -31 -4 -34 -10z"/>
<path d="M5710 9720 c0 -5 5 -10 11 -10 5 0 7 5 4 10 -3 6 -8 10 -11 10 -2 0
-4 -4 -4 -10z"/>
<path d="M2760 9385 c0 -5 5 -17 10 -25 5 -8 10 -10 10 -5 0 6 -5 17 -10 25
-5 8 -10 11 -10 5z"/>
<path d="M2824 9273 c16 -20 36 -23 36 -6 0 4 -3 3 -7 0 -3 -4 -16 1 -27 10
-21 18 -21 18 -2 -4z"/>
<path d="M2760 9190 c6 -11 13 -20 16 -20 2 0 0 9 -6 20 -6 11 -13 20 -16 20
-2 0 0 -9 6 -20z"/>
<path d="M2840 9197 c0 -2 15 -16 33 -33 l32 -29 -29 33 c-28 30 -36 37 -36
29z"/>
<path d="M2795 9140 c22 -31 77 -77 69 -58 -3 7 -24 29 -47 48 -31 26 -36 29
-22 10z"/>
<path d="M2880 9066 c0 -2 7 -7 16 -10 8 -3 12 -2 9 4 -6 10 -25 14 -25 6z"/>
<path d="M2678 9003 c13 -13 28 -23 35 -23 7 0 3 6 -8 12 -11 6 -27 16 -35 22
-9 6 -5 1 8 -11z"/>
<path d="M2735 8970 c3 -5 8 -10 11 -10 2 0 4 5 4 10 0 6 -5 10 -11 10 -5 0
-7 -4 -4 -10z"/>
<path d="M2666 8816 c2 -6 -10 -20 -26 -30 -17 -10 -29 -20 -26 -23 5 -6 86
43 86 51 0 2 -9 6 -19 9 -12 3 -18 0 -15 -7z"/>
<path d="M2635 8730 c-3 -5 -1 -10 4 -10 6 0 11 5 11 10 0 6 -2 10 -4 10 -3 0
-8 -4 -11 -10z"/>
<path d="M6360 8730 c0 -5 5 -10 11 -10 5 0 7 5 4 10 -3 6 -8 10 -11 10 -2 0
-4 -4 -4 -10z"/>
<path d="M6390 8713 c1 -20 29 -86 30 -68 0 11 3 31 5 45 5 22 4 22 -4 5 -8
-17 -10 -17 -10 -3 -1 16 -21 37 -21 21z"/>
<path d="M6419 8526 c11 -12 51 -29 51 -21 0 2 -14 10 -31 19 -23 12 -28 12
-20 2z"/>
<path d="M6475 8480 c3 -5 8 -10 11 -10 2 0 4 5 4 10 0 6 -5 10 -11 10 -5 0
-7 -4 -4 -10z"/>
<path d="M3928 8463 c7 -3 16 -2 19 1 4 3 -2 6 -13 5 -11 0 -14 -3 -6 -6z"/>
<path d="M4020 8458 c-25 -9 -25 -10 -5 -25 19 -15 19 -15 -5 -8 -19 5 -21 4
-10 -4 20 -15 26 -14 46 7 12 12 32 17 65 16 51 0 58 10 12 19 -16 3 -34 1
-40 -5 -9 -7 -17 -7 -25 0 -9 6 -22 6 -38 0z"/>
<path d="M4255 8460 c3 -5 11 -10 16 -10 6 0 7 5 4 10 -3 6 -11 10 -16 10 -6
0 -7 -4 -4 -10z"/>
<path d="M6498 8433 c5 -21 7 -23 10 -9 2 10 0 22 -6 28 -6 6 -7 0 -4 -19z"/>
<path d="M6505 8391 c-3 -5 -1 -12 5 -16 5 -3 10 1 10 9 0 18 -6 21 -15 7z"/>
<path d="M4600 8286 c0 -2 7 -7 16 -10 8 -3 12 -2 9 4 -6 10 -25 14 -25 6z"/>
<path d="M4504 8235 c11 -8 24 -15 30 -15 5 0 1 7 -10 15 -10 8 -23 14 -29 14
-5 0 -1 -6 9 -14z"/>
<path d="M4460 8184 c0 -8 5 -12 10 -9 6 3 10 10 10 16 0 5 -4 9 -10 9 -5 0
-10 -7 -10 -16z"/>
<path d="M5060 8040 c0 -5 4 -10 9 -10 5 0 18 -3 28 -7 16 -6 16 -5 4 10 -15
19 -41 23 -41 7z"/>
<path d="M5018 7973 c6 -2 9 -10 6 -15 -4 -7 -2 -8 5 -4 13 9 5 26 -12 25 -9
0 -8 -2 1 -6z"/>
<path d="M5725 7950 c-4 -6 6 -10 22 -10 22 0 25 2 13 10 -19 12 -27 12 -35 0z"/>
<path d="M5878 7853 c6 -2 18 -2 25 0 6 3 1 5 -13 5 -14 0 -19 -2 -12 -5z"/>
<path d="M5908 7823 c7 -3 16 -2 19 1 4 3 -2 6 -13 5 -11 0 -14 -3 -6 -6z"/>
<path d="M6356 7415 c3 -49 9 -96 14 -105 10 -16 7 21 -10 135 -8 53 -9 49 -4
-30z"/>
<path d="M5834 7331 c4 -7 3 -18 -4 -26 -8 -9 -8 -15 0 -20 6 -3 8 -10 5 -14
-2 -5 4 -16 15 -26 19 -17 20 -17 26 0 5 11 1 22 -8 29 -8 6 -15 22 -14 35 1
13 -5 26 -13 29 -9 3 -11 0 -7 -7z"/>
<path d="M5453 6944 c-6 -17 15 -37 29 -28 13 9 9 32 -7 38 -9 3 -18 -1 -22
-10z"/>
<path d="M6100 6754 c0 -44 20 -67 51 -59 23 6 26 11 24 43 -1 20 -3 40 -4 43
0 3 -17 5 -36 5 -32 -1 -35 -3 -35 -32z"/>
<path d="M4680 6674 c0 -12 38 -50 44 -43 2 2 -7 15 -20 29 -13 13 -24 20 -24
14z"/>
<path d="M6155 6619 c-10 -15 3 -25 16 -12 7 7 7 13 1 17 -6 3 -14 1 -17 -5z"/>
<path d="M4854 6599 c-3 -6 -2 -15 3 -20 5 -5 9 -1 10 11 2 22 -2 25 -13 9z"/>
<path d="M5527 6556 c-4 -10 -1 -13 8 -9 8 3 12 9 9 14 -7 12 -11 11 -17 -5z"/>
<path d="M5036 6541 c-4 -7 -5 -15 -2 -18 9 -9 19 4 14 18 -4 11 -6 11 -12 0z"/>
<path d="M5752 6497 c2 -15 8 -26 13 -25 12 3 8 29 -7 43 -6 7 -8 1 -6 -18z"/>
<path d="M5460 6380 c0 -5 5 -10 11 -10 5 0 7 5 4 10 -3 6 -8 10 -11 10 -2 0
-4 -4 -4 -10z"/>
<path d="M5156 5985 c4 -8 8 -15 10 -15 2 0 4 7 4 15 0 8 -4 15 -10 15 -5 0
-7 -7 -4 -15z"/>
<path d="M5330 5872 c0 -10 11 -29 25 -42 22 -21 25 -21 31 -6 4 10 2 28 -4
42 -14 29 -52 33 -52 6z"/>
<path d="M4210 5781 c0 -6 4 -13 10 -16 6 -3 7 1 4 9 -7 18 -14 21 -14 7z"/>
<path d="M4510 5725 c0 -5 5 -17 10 -25 5 -8 10 -10 10 -5 0 6 -5 17 -10 25
-5 8 -10 11 -10 5z"/>
<path d="M4560 5656 c0 -2 9 -6 20 -9 11 -3 18 -1 14 4 -5 9 -34 13 -34 5z"/>
<path d="M5881 5624 c0 -11 3 -14 6 -6 3 7 2 16 -1 19 -3 4 -6 -2 -5 -13z"/>
<path d="M5850 5525 c-7 -9 -11 -18 -8 -20 3 -3 11 1 18 10 7 9 11 18 8 20 -3
3 -11 -1 -18 -10z"/>
<path d="M5835 5480 c-19 -8 -19 -9 3 -9 12 -1 22 4 22 9 0 6 -1 10 -2 9 -2 0
-12 -4 -23 -9z"/>
<path d="M5175 5390 c3 -5 8 -10 11 -10 2 0 4 5 4 10 0 6 -5 10 -11 10 -5 0
-7 -4 -4 -10z"/>
<path d="M4840 5356 c0 -2 7 -7 16 -10 8 -3 12 -2 9 4 -6 10 -25 14 -25 6z"/>
<path d="M5150 5349 c0 -5 5 -7 10 -4 6 3 10 8 10 11 0 2 -4 4 -10 4 -5 0 -10
-5 -10 -11z"/>
<path d="M4750 5320 c0 -5 5 -10 10 -10 6 0 10 5 10 10 0 6 -4 10 -10 10 -5 0
-10 -4 -10 -10z"/>
<path d="M4940 5326 c0 -2 7 -9 15 -16 9 -7 15 -8 15 -2 0 5 -7 12 -15 16 -8
3 -15 4 -15 2z"/>
<path d="M5040 5326 c0 -2 7 -6 15 -10 8 -3 15 -1 15 4 0 6 -7 10 -15 10 -8 0
-15 -2 -15 -4z"/>
<path d="M4970 5094 c0 -8 5 -12 10 -9 6 3 10 10 10 16 0 5 -4 9 -10 9 -5 0
-10 -7 -10 -16z"/>
<path d="M4903 5084 c0 -15 7 -17 31 -8 23 9 20 19 -7 20 -14 1 -24 -4 -24
-12z"/>
<path d="M4600 4540 c0 -5 5 -10 11 -10 5 0 7 5 4 10 -3 6 -8 10 -11 10 -2 0
-4 -4 -4 -10z"/>
<path d="M5645 4500 c-3 -5 -1 -10 4 -10 6 0 11 5 11 10 0 6 -2 10 -4 10 -3 0
-8 -4 -11 -10z"/>
<path d="M4470 4316 c0 -3 15 -15 33 -27 l32 -23 -24 27 c-22 24 -41 35 -41
23z"/>
<path d="M4220 4256 c0 -2 6 -9 14 -15 11 -9 16 -9 22 0 4 8 3 9 -4 5 -7 -4
-12 -2 -12 3 0 6 -4 11 -10 11 -5 0 -10 -2 -10 -4z"/>
<path d="M4545 4050 c3 -5 8 -10 11 -10 2 0 4 5 4 10 0 6 -5 10 -11 10 -5 0
-7 -4 -4 -10z"/>
<path d="M4412 3998 c5 -15 28 -23 28 -10 0 5 -7 13 -16 16 -10 4 -14 1 -12
-6z"/>
<path d="M4787 3925 c-8 -19 5 -26 41 -23 34 2 33 23 -1 32 -31 8 -34 8 -40
-9z"/>
<path d="M5145 3930 c3 -5 8 -10 11 -10 2 0 4 5 4 10 0 6 -5 10 -11 10 -5 0
-7 -4 -4 -10z"/>
<path d="M4910 3926 c0 -2 7 -7 16 -10 8 -3 12 -2 9 4 -6 10 -25 14 -25 6z"/>
<path d="M4732 3550 c0 -14 2 -19 5 -12 2 6 2 18 0 25 -3 6 -5 1 -5 -13z"/>
</g>
</svg>
